<svg width="370" height="122" viewBox="0 0 370 122" fill="none" xmlns="http://www.w3.org/2000/svg">
<g clip-path="url(#clip0_66_109)">
<path d="M131.047 35.0633H118.674V0.140701H131.149C134.66 0.140701 137.682 0.839836 140.216 2.23811C142.749 3.625 144.698 5.62009 146.061 8.22338C147.436 10.8267 148.123 13.9415 148.123 17.5679C148.123 21.2057 147.436 24.3319 146.061 26.9465C144.698 29.5612 142.738 31.5676 140.182 32.9659C137.637 34.3642 134.592 35.0633 131.047 35.0633ZM126.053 28.737H130.74C132.922 28.737 134.756 28.3505 136.245 27.5775C137.745 26.7931 138.869 25.5824 139.619 23.9454C140.38 22.297 140.761 20.1712 140.761 17.5679C140.761 14.9874 140.38 12.8786 139.619 11.2416C138.869 9.60459 137.75 8.39958 136.262 7.62655C134.773 6.85353 132.939 6.46701 130.757 6.46701H126.053V28.737Z" fill="#1A202C"/>
<path d="M160.918 35.5578C159.248 35.5578 157.76 35.2679 156.453 34.6882C155.146 34.097 154.112 33.2274 153.351 32.0792C152.601 30.9197 152.226 29.4759 152.226 27.748C152.226 26.2929 152.493 25.0708 153.027 24.0818C153.561 23.0928 154.289 22.297 155.209 21.6945C156.129 21.092 157.174 20.6373 158.345 20.3303C159.526 20.0234 160.765 19.8074 162.06 19.6824C163.582 19.5232 164.809 19.3754 165.741 19.239C166.673 19.0912 167.349 18.8752 167.769 18.591C168.19 18.3068 168.4 17.8862 168.4 17.3292V17.2269C168.4 16.1469 168.059 15.3113 167.377 14.7202C166.707 14.1291 165.753 13.8335 164.514 13.8335C163.207 13.8335 162.168 14.1234 161.395 14.7032C160.623 15.2716 160.111 15.9877 159.861 16.8517L153.147 16.306C153.488 14.7145 154.158 13.339 155.158 12.1795C156.158 11.0085 157.447 10.1105 159.026 9.48523C160.617 8.84862 162.458 8.53031 164.548 8.53031C166.002 8.53031 167.394 8.70083 168.724 9.04187C170.064 9.38292 171.252 9.91153 172.285 10.6277C173.331 11.3439 174.154 12.2647 174.757 13.3901C175.359 14.5042 175.66 15.84 175.66 17.3974V35.0633H168.775V31.4312H168.57C168.15 32.2497 167.587 32.9716 166.883 33.5968C166.179 34.2107 165.332 34.6938 164.344 35.0463C163.355 35.3873 162.213 35.5578 160.918 35.5578ZM162.997 30.5445C164.065 30.5445 165.008 30.3342 165.826 29.9136C166.644 29.4816 167.286 28.9018 167.752 28.1743C168.218 27.4467 168.451 26.6225 168.451 25.7017V22.9222C168.224 23.07 167.911 23.2064 167.514 23.3315C167.127 23.4452 166.69 23.5532 166.201 23.6555C165.713 23.7464 165.224 23.8317 164.736 23.9113C164.247 23.9795 163.804 24.042 163.406 24.0988C162.554 24.2239 161.81 24.4228 161.174 24.6957C160.537 24.9685 160.043 25.338 159.691 25.804C159.339 26.2588 159.163 26.8272 159.163 27.5093C159.163 28.4983 159.521 29.2542 160.236 29.7772C160.964 30.2887 161.884 30.5445 162.997 30.5445Z" fill="#1A202C"/>
<path d="M195.216 8.87135V14.328H179.452V8.87135H195.216ZM183.031 2.5962H190.291V27.0147C190.291 27.6855 190.393 28.2084 190.598 28.5835C190.802 28.9473 191.086 29.2031 191.45 29.3509C191.825 29.4987 192.256 29.5725 192.745 29.5725C193.086 29.5725 193.427 29.5441 193.768 29.4873C194.108 29.4191 194.37 29.3679 194.552 29.3338L195.693 34.7393C195.33 34.853 194.819 34.9837 194.16 35.1315C193.501 35.2907 192.7 35.3873 191.757 35.4214C190.007 35.4896 188.473 35.2566 187.155 34.7223C185.848 34.188 184.832 33.3581 184.104 32.2327C183.377 31.1072 183.019 29.6862 183.031 27.9697V2.5962Z" fill="#1A202C"/>
<path d="M207.41 35.5578C205.74 35.5578 204.252 35.2679 202.945 34.6882C201.638 34.097 200.604 33.2274 199.843 32.0792C199.093 30.9197 198.718 29.4759 198.718 27.748C198.718 26.2929 198.985 25.0708 199.519 24.0818C200.053 23.0928 200.781 22.297 201.701 21.6945C202.621 21.092 203.666 20.6373 204.837 20.3303C206.018 20.0234 207.257 19.8074 208.552 19.6824C210.074 19.5232 211.301 19.3754 212.233 19.239C213.165 19.0912 213.841 18.8752 214.261 18.591C214.682 18.3068 214.892 17.8862 214.892 17.3292V17.2269C214.892 16.1469 214.551 15.3113 213.869 14.7202C213.199 14.1291 212.245 13.8335 211.006 13.8335C209.699 13.8335 208.66 14.1234 207.887 14.7032C207.115 15.2716 206.603 15.9877 206.353 16.8517L199.639 16.306C199.98 14.7145 200.65 13.339 201.65 12.1795C202.65 11.0085 203.939 10.1105 205.518 9.48523C207.109 8.84862 208.95 8.53031 211.04 8.53031C212.494 8.53031 213.886 8.70083 215.216 9.04187C216.556 9.38292 217.744 9.91153 218.777 10.6277C219.823 11.3439 220.646 12.2647 221.249 13.3901C221.851 14.5042 222.152 15.84 222.152 17.3974V35.0633H215.267V31.4312H215.062C214.642 32.2497 214.079 32.9716 213.375 33.5968C212.671 34.2107 211.824 34.6938 210.836 35.0463C209.847 35.3873 208.705 35.5578 207.41 35.5578ZM209.489 30.5445C210.557 30.5445 211.5 30.3342 212.318 29.9136C213.136 29.4816 213.778 28.9018 214.244 28.1743C214.71 27.4467 214.943 26.6225 214.943 25.7017V22.9222C214.716 23.07 214.403 23.2064 214.006 23.3315C213.619 23.4452 213.182 23.5532 212.693 23.6555C212.205 23.7464 211.716 23.8317 211.228 23.9113C210.739 23.9795 210.296 24.042 209.898 24.0988C209.046 24.2239 208.302 24.4228 207.666 24.6957C207.029 24.9685 206.535 25.338 206.183 25.804C205.831 26.2588 205.655 26.8272 205.655 27.5093C205.655 28.4983 206.013 29.2542 206.728 29.7772C207.456 30.2887 208.376 30.5445 209.489 30.5445Z" fill="#1A202C"/>
<path d="M137.608 53.201C137.472 51.8255 136.887 50.7569 135.853 49.9952C134.819 49.2336 133.416 48.8527 131.643 48.8527C130.439 48.8527 129.422 49.0233 128.593 49.3643C127.763 49.694 127.127 50.1544 126.684 50.7455C126.252 51.3367 126.036 52.0074 126.036 52.7577C126.014 53.3829 126.144 53.9286 126.428 54.3947C126.724 54.8607 127.127 55.2643 127.638 55.6054C128.15 55.935 128.74 56.2249 129.411 56.475C130.081 56.7137 130.797 56.9184 131.558 57.0889L134.694 57.8392C136.216 58.1802 137.614 58.6349 138.886 59.2033C140.159 59.7717 141.261 60.4709 142.193 61.3007C143.124 62.1306 143.846 63.1082 144.357 64.2337C144.88 65.3591 145.147 66.6494 145.158 68.1045C145.147 70.2417 144.601 72.0947 143.522 73.6635C142.454 75.2209 140.909 76.4316 138.886 77.2956C136.875 78.1482 134.45 78.5745 131.609 78.5745C128.792 78.5745 126.337 78.1425 124.247 77.2785C122.168 76.4145 120.543 75.1356 119.373 73.4418C118.214 71.7366 117.606 69.6278 117.549 67.1155H124.69C124.77 68.2864 125.105 69.264 125.695 70.0484C126.298 70.8215 127.099 71.4069 128.098 71.8048C129.11 72.1913 130.252 72.3846 131.524 72.3846C132.774 72.3846 133.859 72.2027 134.779 71.8389C135.711 71.4751 136.432 70.9693 136.944 70.3213C137.455 69.6733 137.71 68.9287 137.71 68.0875C137.71 67.3031 137.478 66.6437 137.012 66.1094C136.557 65.5751 135.887 65.1204 135.001 64.7453C134.126 64.3701 133.052 64.0291 131.78 63.7221L127.979 62.7672C125.037 62.051 122.713 60.9313 121.009 59.408C119.305 57.8846 118.458 55.8327 118.469 53.2522C118.458 51.1377 119.021 49.2904 120.157 47.7102C121.304 46.1301 122.878 44.8967 124.877 44.01C126.877 43.1232 129.149 42.6799 131.694 42.6799C134.285 42.6799 136.546 43.1232 138.477 44.01C140.42 44.8967 141.931 46.1301 143.011 47.7102C144.09 49.2904 144.647 51.1207 144.681 53.201H137.608Z" fill="#1A202C"/>
<path d="M161.813 78.5915C159.131 78.5915 156.825 78.0231 154.894 76.8863C152.973 75.7381 151.496 74.1466 150.463 72.1117C149.44 70.0769 148.929 67.735 148.929 65.0863C148.929 62.4034 149.446 60.0503 150.48 58.0267C151.525 55.9919 153.008 54.406 154.928 53.2692C156.848 52.121 159.131 51.547 161.779 51.547C164.062 51.547 166.062 51.9619 167.778 52.7918C169.493 53.6216 170.851 54.7869 171.851 56.2874C172.851 57.788 173.402 59.5501 173.504 61.5736H166.653C166.46 60.2662 165.948 59.2147 165.119 58.4189C164.301 57.6118 163.227 57.2082 161.898 57.2082C160.773 57.2082 159.79 57.5152 158.95 58.1291C158.12 58.7316 157.473 59.6126 157.007 60.7721C156.541 61.9317 156.308 63.3356 156.308 64.984C156.308 66.6551 156.535 68.0761 156.99 69.247C157.456 70.4179 158.109 71.3103 158.95 71.9242C159.79 72.538 160.773 72.845 161.898 72.845C162.727 72.845 163.472 72.6745 164.131 72.3334C164.801 71.9924 165.352 71.4979 165.784 70.8499C166.227 70.1905 166.517 69.4005 166.653 68.4797H173.504C173.39 70.4804 172.845 72.2425 171.868 73.7658C170.902 75.2777 169.567 76.46 167.863 77.3126C166.159 78.1652 164.142 78.5915 161.813 78.5915Z" fill="#1A202C"/>
<path d="M178.152 78.08V51.888H185.412V78.08H178.152ZM181.799 48.5117C180.72 48.5117 179.794 48.1536 179.022 47.4374C178.26 46.7099 177.88 45.8402 177.88 44.8284C177.88 43.8281 178.26 42.9698 179.022 42.2536C179.794 41.526 180.72 41.1623 181.799 41.1623C182.879 41.1623 183.799 41.526 184.56 42.2536C185.333 42.9698 185.719 43.8281 185.719 44.8284C185.719 45.8402 185.333 46.7099 184.56 47.4374C183.799 48.1536 182.879 48.5117 181.799 48.5117Z" fill="#1A202C"/>
<path d="M203.158 78.5915C200.465 78.5915 198.147 78.0459 196.205 76.9545C194.273 75.8518 192.785 74.2944 191.74 72.2823C190.694 70.2587 190.172 67.8658 190.172 65.1033C190.172 62.4091 190.694 60.0446 191.74 58.0097C192.785 55.9748 194.256 54.389 196.154 53.2522C198.062 52.1154 200.301 51.547 202.868 51.547C204.595 51.547 206.203 51.8255 207.691 52.3825C209.191 52.9282 210.498 53.7524 211.611 54.8551C212.736 55.9578 213.611 57.3447 214.236 59.0158C214.861 60.6755 215.173 62.6194 215.173 64.8476V66.8426H193.069V62.3409H208.339C208.339 61.2951 208.112 60.3686 207.657 59.5614C207.203 58.7543 206.572 58.1234 205.766 57.6687C204.97 57.2026 204.044 56.9695 202.988 56.9695C201.885 56.9695 200.908 57.2253 200.056 57.7369C199.215 58.2371 198.557 58.9134 198.079 59.7661C197.602 60.6073 197.358 61.5452 197.346 62.5796V66.8597C197.346 68.1557 197.585 69.2754 198.062 70.219C198.551 71.1625 199.238 71.8901 200.124 72.4016C201.011 72.9132 202.062 73.169 203.277 73.169C204.084 73.169 204.822 73.0553 205.493 72.8279C206.163 72.6006 206.737 72.2595 207.214 71.8048C207.691 71.3501 208.055 70.793 208.305 70.1337L215.02 70.5771C214.679 72.1913 213.98 73.601 212.923 74.806C211.878 75.9996 210.526 76.9318 208.867 77.6025C207.22 78.2619 205.317 78.5915 203.158 78.5915Z" fill="#1A202C"/>
<path d="M227.171 62.9377V78.08H219.911V51.888H226.83V56.5091H227.137C227.716 54.9858 228.688 53.7808 230.051 52.8941C231.414 51.996 233.068 51.547 235.01 51.547C236.828 51.547 238.413 51.9448 239.765 52.7406C241.117 53.5364 242.168 54.6732 242.918 56.151C243.668 57.6175 244.043 59.3682 244.043 61.403V78.08H236.783V62.699C236.794 61.0961 236.385 59.8456 235.556 58.9476C234.726 58.0381 233.585 57.5834 232.13 57.5834C231.153 57.5834 230.29 57.7937 229.54 58.2143C228.801 58.6349 228.222 59.2488 227.801 60.0559C227.392 60.8517 227.182 61.8123 227.171 62.9377Z" fill="#1A202C"/>
<path d="M261.593 78.5915C258.911 78.5915 256.605 78.0231 254.673 76.8863C252.753 75.7381 251.276 74.1466 250.242 72.1117C249.22 70.0769 248.708 67.735 248.708 65.0863C248.708 62.4034 249.225 60.0503 250.259 58.0267C251.305 55.9919 252.787 54.406 254.707 53.2692C256.627 52.121 258.911 51.547 261.558 51.547C263.842 51.547 265.842 51.9619 267.557 52.7918C269.273 53.6216 270.631 54.7869 271.631 56.2874C272.63 57.788 273.181 59.5501 273.284 61.5736H266.433C266.239 60.2662 265.728 59.2147 264.899 58.4189C264.081 57.6118 263.007 57.2082 261.678 57.2082C260.553 57.2082 259.57 57.5152 258.729 58.1291C257.9 58.7316 257.252 59.6126 256.787 60.7721C256.321 61.9317 256.088 63.3356 256.088 64.984C256.088 66.6551 256.315 68.0761 256.77 69.247C257.235 70.4179 257.889 71.3103 258.729 71.9242C259.57 72.538 260.553 72.845 261.678 72.845C262.507 72.845 263.251 72.6745 263.91 72.3334C264.581 71.9924 265.132 71.4979 265.563 70.8499C266.007 70.1905 266.296 69.4005 266.433 68.4797H273.284C273.17 70.4804 272.625 72.2425 271.648 73.7658C270.682 75.2777 269.347 76.46 267.643 77.3126C265.938 78.1652 263.922 78.5915 261.593 78.5915Z" fill="#1A202C"/>
<path d="M289.862 78.5915C287.169 78.5915 284.851 78.0459 282.908 76.9545C280.977 75.8518 279.489 74.2944 278.443 72.2823C277.398 70.2587 276.875 67.8658 276.875 65.1033C276.875 62.4091 277.398 60.0446 278.443 58.0097C279.489 55.9748 280.96 54.389 282.857 53.2522C284.766 52.1154 287.004 51.547 289.572 51.547C291.299 51.547 292.907 51.8255 294.395 52.3825C295.895 52.9282 297.201 53.7524 298.315 54.8551C299.44 55.9578 300.315 57.3447 300.939 59.0158C301.564 60.6755 301.877 62.6194 301.877 64.8476V66.8426H279.773V62.3409H295.043C295.043 61.2951 294.816 60.3686 294.361 59.5614C293.907 58.7543 293.276 58.1234 292.469 57.6687C291.674 57.2026 290.748 56.9695 289.691 56.9695C288.589 56.9695 287.612 57.2253 286.76 57.7369C285.919 58.2371 285.26 58.9134 284.783 59.7661C284.306 60.6073 284.062 61.5452 284.05 62.5796V66.8597C284.05 68.1557 284.289 69.2754 284.766 70.219C285.255 71.1625 285.942 71.8901 286.828 72.4016C287.714 72.9132 288.765 73.169 289.981 73.169C290.788 73.169 291.526 73.0553 292.197 72.8279C292.867 72.6006 293.441 72.2595 293.918 71.8048C294.395 71.3501 294.759 70.793 295.009 70.1337L301.723 70.5771C301.383 72.1913 300.684 73.601 299.627 74.806C298.582 75.9996 297.23 76.9318 295.571 77.6025C293.924 78.2619 292.021 78.5915 289.862 78.5915Z" fill="#1A202C"/>
<path d="M147.868 86.174V121.097H141.494L126.309 99.1165H126.053V121.097H118.674V86.174H125.15L140.216 108.137H140.522V86.174H147.868Z" fill="#1A202C"/>
<path d="M165.656 121.608C163.009 121.608 160.719 121.045 158.788 119.92C156.868 118.783 155.385 117.203 154.34 115.18C153.294 113.145 152.772 110.786 152.772 108.103C152.772 105.397 153.294 103.033 154.34 101.009C155.385 98.9744 156.868 97.3943 158.788 96.2688C160.719 95.132 163.009 94.5636 165.656 94.5636C168.303 94.5636 170.587 95.132 172.507 96.2688C174.439 97.3943 175.927 98.9744 176.972 101.009C178.017 103.033 178.54 105.397 178.54 108.103C178.54 110.786 178.017 113.145 176.972 115.18C175.927 117.203 174.439 118.783 172.507 119.92C170.587 121.045 168.303 121.608 165.656 121.608ZM165.69 115.981C166.894 115.981 167.9 115.64 168.707 114.958C169.513 114.264 170.121 113.321 170.53 112.127C170.95 110.934 171.161 109.575 171.161 108.052C171.161 106.528 170.95 105.17 170.53 103.976C170.121 102.783 169.513 101.839 168.707 101.146C167.9 100.452 166.894 100.106 165.69 100.106C164.474 100.106 163.452 100.452 162.622 101.146C161.804 101.839 161.185 102.783 160.765 103.976C160.356 105.17 160.151 106.528 160.151 108.052C160.151 109.575 160.356 110.934 160.765 112.127C161.185 113.321 161.804 114.264 162.622 114.958C163.452 115.64 164.474 115.981 165.69 115.981Z" fill="#1A202C"/>
<path d="M197.185 94.9047V100.361H181.42V94.9047H197.185ZM184.999 88.6295H192.259V113.048C192.259 113.719 192.362 114.242 192.566 114.617C192.771 114.981 193.055 115.236 193.418 115.384C193.793 115.532 194.225 115.606 194.713 115.606C195.054 115.606 195.395 115.577 195.736 115.521C196.077 115.452 196.338 115.401 196.52 115.367L197.662 120.773C197.298 120.886 196.787 121.017 196.128 121.165C195.469 121.324 194.668 121.421 193.725 121.455C191.975 121.523 190.441 121.29 189.123 120.756C187.817 120.221 186.8 119.391 186.073 118.266C185.346 117.141 184.988 115.72 184.999 114.003V88.6295Z" fill="#1A202C"/>
<path d="M213.562 121.608C210.87 121.608 208.552 121.063 206.609 119.971C204.678 118.868 203.189 117.311 202.144 115.299C201.099 113.275 200.576 110.882 200.576 108.12C200.576 105.426 201.099 103.061 202.144 101.026C203.189 98.9915 204.661 97.4056 206.558 96.2688C208.467 95.132 210.705 94.5636 213.273 94.5636C215 94.5636 216.607 94.8421 218.096 95.3992C219.596 95.9448 220.902 96.769 222.016 97.8717C223.14 98.9744 224.015 100.361 224.64 102.032C225.265 103.692 225.577 105.636 225.577 107.864V109.859H203.473V105.358H218.743C218.743 104.312 218.516 103.385 218.062 102.578C217.607 101.771 216.977 101.14 216.17 100.685C215.375 100.219 214.449 99.9862 213.392 99.9862C212.29 99.9862 211.313 100.242 210.461 100.754C209.62 101.254 208.961 101.93 208.484 102.783C208.007 103.624 207.762 104.562 207.751 105.596V109.876C207.751 111.172 207.99 112.292 208.467 113.236C208.955 114.179 209.643 114.907 210.529 115.418C211.415 115.93 212.466 116.186 213.682 116.186C214.488 116.186 215.227 116.072 215.897 115.845C216.568 115.617 217.141 115.276 217.619 114.821C218.096 114.367 218.459 113.81 218.709 113.15L225.424 113.594C225.083 115.208 224.384 116.618 223.328 117.823C222.283 119.016 220.931 119.948 219.272 120.619C217.624 121.279 215.721 121.608 213.562 121.608Z" fill="#1A202C"/>
<path d="M230.452 121.097V86.174H237.712V99.3041H237.933C238.251 98.5993 238.712 97.8831 239.314 97.1555C239.927 96.4166 240.723 95.8027 241.7 95.3139C242.688 94.8137 243.915 94.5636 245.381 94.5636C247.29 94.5636 249.051 95.0638 250.664 96.0642C252.277 97.0532 253.567 98.5481 254.533 100.549C255.498 102.538 255.981 105.034 255.981 108.035C255.981 110.956 255.51 113.423 254.567 115.435C253.635 117.436 252.363 118.954 250.749 119.988C249.147 121.011 247.352 121.523 245.364 121.523C243.955 121.523 242.756 121.29 241.768 120.824C240.791 120.358 239.99 119.772 239.365 119.067C238.74 118.351 238.263 117.629 237.933 116.902H237.609V121.097H230.452ZM237.558 108.001C237.558 109.558 237.774 110.917 238.206 112.076C238.638 113.236 239.263 114.139 240.081 114.787C240.899 115.424 241.893 115.742 243.063 115.742C244.245 115.742 245.245 115.418 246.063 114.77C246.881 114.111 247.5 113.202 247.92 112.042C248.352 110.871 248.568 109.524 248.568 108.001C248.568 106.489 248.358 105.159 247.937 104.01C247.517 102.862 246.898 101.964 246.08 101.316C245.262 100.668 244.256 100.344 243.063 100.344C241.881 100.344 240.882 100.657 240.064 101.282C239.257 101.907 238.638 102.794 238.206 103.942C237.774 105.09 237.558 106.443 237.558 108.001Z" fill="#1A202C"/>
<path d="M272.653 121.608C270.006 121.608 267.716 121.045 265.785 119.92C263.865 118.783 262.382 117.203 261.337 115.18C260.292 113.145 259.769 110.786 259.769 108.103C259.769 105.397 260.292 103.033 261.337 101.009C262.382 98.9744 263.865 97.3943 265.785 96.2688C267.716 95.132 270.006 94.5636 272.653 94.5636C275.3 94.5636 277.584 95.132 279.504 96.2688C281.436 97.3943 282.924 98.9744 283.969 101.009C285.015 103.033 285.537 105.397 285.537 108.103C285.537 110.786 285.015 113.145 283.969 115.18C282.924 117.203 281.436 118.783 279.504 119.92C277.584 121.045 275.3 121.608 272.653 121.608ZM272.687 115.981C273.892 115.981 274.897 115.64 275.704 114.958C276.51 114.264 277.118 113.321 277.527 112.127C277.948 110.934 278.158 109.575 278.158 108.052C278.158 106.528 277.948 105.17 277.527 103.976C277.118 102.783 276.51 101.839 275.704 101.146C274.897 100.452 273.892 100.106 272.687 100.106C271.472 100.106 270.449 100.452 269.62 101.146C268.802 101.839 268.182 102.783 267.762 103.976C267.353 105.17 267.148 106.528 267.148 108.052C267.148 109.575 267.353 110.934 267.762 112.127C268.182 113.321 268.802 114.264 269.62 114.958C270.449 115.64 271.472 115.981 272.687 115.981Z" fill="#1A202C"/>
<path d="M302.086 121.608C299.438 121.608 297.149 121.045 295.217 119.92C293.297 118.783 291.815 117.203 290.769 115.18C289.724 113.145 289.201 110.786 289.201 108.103C289.201 105.397 289.724 103.033 290.769 101.009C291.815 98.9744 293.297 97.3943 295.217 96.2688C297.149 95.132 299.438 94.5636 302.086 94.5636C304.733 94.5636 307.017 95.132 308.937 96.2688C310.868 97.3943 312.357 98.9744 313.402 101.009C314.447 103.033 314.97 105.397 314.97 108.103C314.97 110.786 314.447 113.145 313.402 115.18C312.357 117.203 310.868 118.783 308.937 119.92C307.017 121.045 304.733 121.608 302.086 121.608ZM302.12 115.981C303.324 115.981 304.329 115.64 305.136 114.958C305.943 114.264 306.551 113.321 306.96 112.127C307.38 110.934 307.59 109.575 307.59 108.052C307.59 106.528 307.38 105.17 306.96 103.976C306.551 102.783 305.943 101.839 305.136 101.146C304.329 100.452 303.324 100.106 302.12 100.106C300.904 100.106 299.881 100.452 299.052 101.146C298.234 101.839 297.615 102.783 297.194 103.976C296.785 105.17 296.581 106.528 296.581 108.052C296.581 109.575 296.785 110.934 297.194 112.127C297.615 113.321 298.234 114.264 299.052 114.958C299.881 115.64 300.904 115.981 302.12 115.981Z" fill="#1A202C"/>
<path d="M326.269 113.56L326.286 104.846H327.343L335.727 94.9047H344.061L332.796 108.069H331.075L326.269 113.56ZM319.69 121.097V86.174H326.951V121.097H319.69ZM336.051 121.097L328.348 109.689L333.188 104.556L344.556 121.097H336.051Z" fill="#1A202C"/>
<path d="M369.404 102.373L362.757 102.783C362.643 102.214 362.399 101.703 362.024 101.248C361.649 100.782 361.155 100.412 360.541 100.14C359.939 99.8554 359.218 99.7133 358.377 99.7133C357.252 99.7133 356.303 99.9521 355.531 100.43C354.758 100.896 354.372 101.521 354.372 102.305C354.372 102.93 354.622 103.459 355.122 103.891C355.622 104.323 356.48 104.67 357.695 104.931L362.433 105.886C364.978 106.409 366.876 107.25 368.125 108.41C369.375 109.569 370 111.093 370 112.98C370 114.696 369.494 116.203 368.483 117.499C367.483 118.795 366.109 119.806 364.359 120.534C362.621 121.25 360.615 121.608 358.343 121.608C354.878 121.608 352.117 120.886 350.06 119.443C348.015 117.987 346.816 116.009 346.464 113.508L353.605 113.133C353.821 114.191 354.344 114.998 355.173 115.555C356.002 116.1 357.065 116.373 358.36 116.373C359.632 116.373 360.655 116.129 361.428 115.64C362.212 115.14 362.609 114.497 362.621 113.713C362.609 113.054 362.331 112.514 361.785 112.093C361.24 111.661 360.399 111.331 359.263 111.104L354.73 110.2C352.174 109.689 350.27 108.802 349.021 107.54C347.782 106.278 347.163 104.67 347.163 102.714C347.163 101.032 347.617 99.5826 348.526 98.3662C349.447 97.1498 350.736 96.212 352.395 95.5526C354.065 94.8933 356.019 94.5636 358.258 94.5636C361.564 94.5636 364.166 95.2627 366.063 96.661C367.972 98.0593 369.085 99.9634 369.404 102.373Z" fill="#1A202C"/>
<path d="M91.3768 0.140701H32.4073C30.1213 0.140701 28.2613 2.0007 28.2613 4.28668V7.95883C28.2613 8.94012 29.0569 9.73567 30.0382 9.73567C31.0195 9.73567 31.815 8.94012 31.815 7.95883V4.28668C31.815 3.96021 32.0809 3.6944 32.4073 3.6944H79.3952V12.1223C79.3952 14.4083 81.2552 16.2683 83.5412 16.2683H91.9691V87.3562C91.9691 87.6826 91.7033 87.9484 91.3768 87.9484H67.2615V75.8597H81.8906C82.8719 75.8597 83.6675 75.0642 83.6675 74.0829C83.6675 73.1016 82.8719 72.306 81.8906 72.306H67.2615V66.0402H81.8906C82.8719 66.0402 83.6675 65.2446 83.6675 64.2633C83.6675 63.282 82.8719 62.4865 81.8906 62.4865H67.2615V56.2204H81.8906C82.8719 56.2204 83.6675 55.4248 83.6675 54.4435C83.6675 53.4622 82.8719 52.6667 81.8906 52.6667H67.2615V46.4008H81.8906C82.8719 46.4008 83.6675 45.6052 83.6675 44.6239C83.6675 43.6427 82.8719 42.8471 81.8906 42.8471H67.2615V36.581H81.8906C82.8719 36.581 83.6675 35.7854 83.6675 34.8041C83.6675 33.8228 82.8719 33.0273 81.8906 33.0273H67.0836C66.5685 31.3234 64.9852 30.0784 63.1155 30.0784H31.815V16.2508C31.815 15.2695 31.0195 14.4739 30.0382 14.4739C29.0569 14.4739 28.2613 15.2695 28.2613 16.2508V18.9255H15.2991C13.0132 18.9255 11.1531 20.7855 11.1531 23.0715V30.0787H4.14598C1.86 30.0787 0 31.9387 0 34.2247V88.0354C0 89.0167 0.795554 89.8122 1.77685 89.8122C2.75814 89.8122 3.55369 89.0167 3.55369 88.0354V34.2247C3.55369 33.8982 3.81951 33.6324 4.14598 33.6324H63.1155C63.442 33.6324 63.7078 33.8982 63.7078 34.2247V117.294C63.7078 117.621 63.442 117.886 63.1155 117.886H4.14598C3.81951 117.886 3.55369 117.621 3.55369 117.294V96.3273C3.55369 95.3461 2.75814 94.5505 1.77685 94.5505C0.795554 94.5505 0 95.3461 0 96.3273V117.294C0 119.58 1.86 121.44 4.14598 121.44H63.1155C65.4015 121.44 67.2615 119.58 67.2615 117.294V110.287H74.2686C76.5546 110.287 78.4146 108.427 78.4146 106.141V103.198C78.4146 102.217 77.6191 101.421 76.6378 101.421C75.6565 101.421 74.8609 102.217 74.8609 103.198V106.141C74.8609 106.467 74.5951 106.733 74.2686 106.733H67.2615V91.5021H74.8609V94.9059C74.8609 95.8872 75.6565 96.6827 76.6378 96.6827C77.6191 96.6827 78.4146 95.8872 78.4146 94.9059V91.5021H91.3768C93.6628 91.5021 95.5228 89.6421 95.5228 87.3562V4.28668C95.5228 2.0007 93.6631 0.140701 91.3768 0.140701ZM14.7068 23.0715C14.7068 22.745 14.9727 22.4792 15.2991 22.4792H28.2613V30.0787H14.7068V23.0715ZM83.5412 12.7146C83.2147 12.7146 82.9489 12.4488 82.9489 12.1223V6.20733L89.4562 12.7146H83.5412ZM85.4618 3.6944H91.3768C91.7033 3.6944 91.9691 3.96021 91.9691 4.28668V10.2019L85.4618 3.6944Z" fill="#1A202C"/>
<path d="M41.8936 16.9418H65.0056C65.9869 16.9418 66.7825 16.1462 66.7825 15.165C66.7825 14.1837 65.9869 13.3881 65.0056 13.3881H41.8936C40.9123 13.3881 40.1167 14.1837 40.1167 15.165C40.1167 16.1462 40.9123 16.9418 41.8936 16.9418V16.9418Z" fill="#1A202C"/>
<path d="M41.8936 26.7615H81.8906C82.8719 26.7615 83.6675 25.966 83.6675 24.9847C83.6675 24.0034 82.8719 23.2078 81.8906 23.2078H41.8936C40.9123 23.2078 40.1167 24.0034 40.1167 24.9847C40.1167 25.966 40.9123 26.7615 41.8936 26.7615Z" fill="#1A202C"/>
<path d="M53.7683 46.8797C54.7496 46.8797 55.5452 46.0841 55.5452 45.1029C55.5452 44.1216 54.7496 43.326 53.7683 43.326H30.8809C29.8996 43.326 29.104 44.1216 29.104 45.1029C29.104 46.0841 29.8996 46.8797 30.8809 46.8797H53.7683Z" fill="#1A202C"/>
<path d="M52.5838 53.7569H49.009C47.376 53.7569 46.0476 55.0853 46.0476 56.7183V72.7848H44.1013V61.4566C44.1013 59.8236 42.773 58.4952 41.1399 58.4952H37.5652C35.9321 58.4952 34.6037 59.8236 34.6037 61.4566V72.7848H32.6575V54.3492C32.6575 52.7162 31.3291 51.3878 29.6961 51.3878H26.1213C24.4883 51.3878 23.1599 52.7162 23.1599 54.3492V72.7848H21.2137V66.1949C21.2137 64.5618 19.8853 63.2335 18.2523 63.2335H14.6775C13.0444 63.2335 11.7161 64.5618 11.7161 66.1949V74.5617C11.7161 75.543 12.5116 76.3385 13.4929 76.3385H53.7681C54.7494 76.3385 55.545 75.543 55.545 74.5617V56.7183C55.5452 55.0855 54.2168 53.7569 52.5838 53.7569V53.7569ZM17.6602 72.7851H15.27V66.7874H17.6602V72.7851ZM29.1041 72.7851H26.7138V54.9417H29.1041V72.7851ZM40.5477 72.7851H38.1574V62.0491H40.5477V72.7851ZM51.9915 72.7851H49.6013V57.3109H51.9915V72.7851Z" fill="#1A202C"/>
<path d="M53.7683 82.6046H43.6652C42.6839 82.6046 41.8883 83.4001 41.8883 84.3814C41.8883 85.3627 42.6839 86.1582 43.6652 86.1582H53.7683C54.7496 86.1582 55.5452 85.3627 55.5452 84.3814C55.5452 83.4001 54.7496 82.6046 53.7683 82.6046Z" fill="#1A202C"/>
<path d="M53.7683 92.4241H43.6652C42.6839 92.4241 41.8883 93.2196 41.8883 94.2009C41.8883 95.1822 42.6839 95.9778 43.6652 95.9778H53.7683C54.7496 95.9778 55.5452 95.1822 55.5452 94.2009C55.5452 93.2196 54.7496 92.4241 53.7683 92.4241Z" fill="#1A202C"/>
<path d="M53.7683 102.244H43.6652C42.6839 102.244 41.8883 103.04 41.8883 104.021C41.8883 105.002 42.6839 105.798 43.6652 105.798H53.7683C54.7496 105.798 55.5452 105.002 55.5452 104.021C55.5452 103.04 54.7496 102.244 53.7683 102.244Z" fill="#1A202C"/>
<path d="M13.4931 86.1582H36.3209C37.3022 86.1582 38.0977 85.3627 38.0977 84.3814C38.0977 83.4001 37.3022 82.6046 36.3209 82.6046H13.4931C12.5118 82.6046 11.7163 83.4001 11.7163 84.3814C11.7163 85.3627 12.5118 86.1582 13.4931 86.1582Z" fill="#1A202C"/>
<path d="M13.4931 95.9778H36.3209C37.3022 95.9778 38.0977 95.1822 38.0977 94.2009C38.0977 93.2196 37.3022 92.4241 36.3209 92.4241H13.4931C12.5118 92.4241 11.7163 93.2196 11.7163 94.2009C11.7163 95.1822 12.5118 95.9778 13.4931 95.9778Z" fill="#1A202C"/>
<path d="M13.4931 105.798H36.3209C37.3022 105.798 38.0977 105.002 38.0977 104.021C38.0977 103.04 37.3022 102.244 36.3209 102.244H13.4931C12.5118 102.244 11.7163 103.04 11.7163 104.021C11.7163 105.002 12.5118 105.798 13.4931 105.798Z" fill="#1A202C"/>
<path d="M19.437 46.8797C20.4183 46.8797 21.2139 46.0841 21.2139 45.1029C21.2139 44.1216 20.4183 43.326 19.437 43.326H13.4931C12.5118 43.326 11.7163 44.1216 11.7163 45.1029C11.7163 46.0841 12.5118 46.8797 13.4931 46.8797H19.437Z" fill="#1A202C"/>
</g>
<defs>
<clipPath id="clip0_66_109">
<rect width="370" height="122" fill="white"/>
</clipPath>
</defs>
</svg>
